HIERARCHY
ROOT Hips
{
	OFFSET 0.000000 0.000000 0.000000
	CHANNELS 6 Xposition Yposition Zposition Zrotation Yrotation Xrotation 
	JOINT LHipJoint
	{
		OFFSET 0.000000 0.000000 0.000000
		CHANNELS 3 Zrotation Yrotation Xrotation
		JOINT LeftUpLeg
		{
			OFFSET 1.363060 -1.794630 0.839290
			CHANNELS 3 Zrotation Yrotation Xrotation
			JOINT LeftLeg
			{
				OFFSET 2.448110 -6.726130 0.000000
				CHANNELS 3 Zrotation Yrotation Xrotation
				JOINT LeftFoot
				{
					OFFSET 2.562200 -7.039590 0.000000
					CHANNELS 3 Zrotation Yrotation Xrotation
					JOINT LeftToeBase
					{
						OFFSET 0.157640 -0.433110 2.322550
						CHANNELS 3 Zrotation Yrotation Xrotation
						End Site
						{
							OFFSET 0.000000 0.000000 0.000000
						}
					}
				}
			}
		}
	}
	JOINT RHipJoint
	{
		OFFSET 0.000000 0.000000 0.000000
		CHANNELS 3 Zrotation Yrotation Xrotation
		JOINT RightUpLeg
		{
			OFFSET -1.305520 -1.794630 0.839290
			CHANNELS 3 Zrotation Yrotation Xrotation
			JOINT RightLeg
			{
				OFFSET -2.542530 -6.985550 0.000000
				CHANNELS 3 Zrotation Yrotation Xrotation
				JOINT RightFoot
				{
					OFFSET -2.568260 -7.056230 0.000000
					CHANNELS 3 Zrotation Yrotation Xrotation
					JOINT RightToeBase
					{
						OFFSET -0.164730 -0.452590 2.363150
						CHANNELS 3 Zrotation Yrotation Xrotation
						End Site
						{
							OFFSET 0.000000 0.000000 0.000000
						}
					}
				}
			}
		}
	}
	JOINT LowerBack
	{
		OFFSET 0.000000 0.000000 0.000000
		CHANNELS 3 Zrotation Yrotation Xrotation
		JOINT Spine
		{
			OFFSET 0.028270 2.035590 -0.193380
			CHANNELS 3 Zrotation Yrotation Xrotation
			JOINT Spine1
			{
				OFFSET 0.056720 2.048850 -0.042750
				CHANNELS 3 Zrotation Yrotation Xrotation
				JOINT Neck
				{
					OFFSET 0.000000 0.000000 0.000000
					CHANNELS 3 Zrotation Yrotation Xrotation
					JOINT Neck1
					{
						OFFSET -0.054170 1.746240 0.172020
						CHANNELS 3 Zrotation Yrotation Xrotation
						JOINT Head
						{
							OFFSET 0.104070 1.761360 -0.123970
							CHANNELS 3 Zrotation Yrotation Xrotation
							End Site
							{
								OFFSET 0.000000 0.000000 0.000000
							}
						}
					}
				}
				JOINT LeftShoulder
				{
					OFFSET 0.000000 0.000000 0.000000
					CHANNELS 3 Zrotation Yrotation Xrotation
					JOINT LeftArm
					{
						OFFSET 3.362410 1.200890 -0.311210
						CHANNELS 3 Zrotation Yrotation Xrotation
						JOINT LeftForeArm
						{
							OFFSET 4.983000 -0.000000 -0.000000
							CHANNELS 3 Zrotation Yrotation Xrotation
							JOINT LeftHand
							{
								OFFSET 3.483560 -0.000000 -0.000000
								CHANNELS 3 Zrotation Yrotation Xrotation
								JOINT LeftFingerBase
								{
									OFFSET 0.000000 0.000000 0.000000
									CHANNELS 3 Zrotation Yrotation Xrotation
									JOINT LeftHandIndex1
									{
										OFFSET 0.715260 -0.000000 -0.000000
										CHANNELS 3 Zrotation Yrotation Xrotation
										End Site
										{
											OFFSET 0.000000 0.000000 0.000000
										}
									}
								}
								JOINT LThumb
								{
									OFFSET 0.000000 0.000000 0.000000
									CHANNELS 3 Zrotation Yrotation Xrotation
									End Site
									{
										OFFSET 0.000000 0.000000 0.000000
									}
								}
							}
						}
					}
				}
				JOINT RightShoulder
				{
					OFFSET 0.000000 0.000000 0.000000
					CHANNELS 3 Zrotation Yrotation Xrotation
					JOINT RightArm
					{
						OFFSET -3.136600 1.374050 -0.404650
						CHANNELS 3 Zrotation Yrotation Xrotation
						JOINT RightForeArm
						{
							OFFSET -5.241900 -0.000000 -0.000000
							CHANNELS 3 Zrotation Yrotation Xrotation
							JOINT RightHand
							{
								OFFSET -3.444170 -0.000000 -0.000000
								CHANNELS 3 Zrotation Yrotation Xrotation
								JOINT RightFingerBase
								{
									OFFSET 0.000000 0.000000 0.000000
									CHANNELS 3 Zrotation Yrotation Xrotation
									JOINT RightHandIndex1
									{
										OFFSET -0.622530 -0.000000 -0.000000
										CHANNELS 3 Zrotation Yrotation Xrotation
										End Site
										{
											OFFSET 0.000000 0.000000 0.000000
										}
									}
								}
								JOINT RThumb
								{
									OFFSET 0.000000 0.000000 0.000000
									CHANNELS 3 Zrotation Yrotation Xrotation
									End Site
									{
										OFFSET 0.000000 0.000000 0.000000
									}
								}
							}
						}
					}
				}
			}
		}
	}
}
MOTION
Frames: 9
Frame Time: 0.008333
5.999501 17.364694 -11.598518 -5.963199 1.380034 3.019845 4.923168 1.930048 -0.472009 -11.962898 -12.640828 -8.544704 -0.154318 9.859268 27.740927 -0.427542 4.896929 -8.949440 0.811500 -5.748700 -16.057000 -8.690420 -2.814752 -3.036750 31.288668 -5.353955 6.808449 2.806366 -0.198203 4.256373 0.507879 -9.798696 -10.813903 -0.320500 3.639200 -10.063800 5.520802 1.135718 4.632692 1.282632 1.832210 -3.582357 -3.165023 0.555573 -0.150661 2.267610 2.980424 -18.834860 5.394049 2.832466 13.294749 0.104900 1.959400 13.044600 2.861345 -1.309482 -0.715058 -87.588884 3.360423 36.612381 17.291242 -25.470791 -5.157093 -0.170520 -2.231245 -28.604047 32.360400 52.965096 28.268200 -7.125000 0.000000 0.000000 -79.712700 84.677200 -74.410100 -3.053664 1.098700 -0.991555 89.478542 -0.218643 25.881608 -11.396812 21.005804 -2.306997 0.710273 -0.120379 -9.567620 -20.930045 12.206295 -4.863300 7.125000 0.000000 0.000000 3.906800 -16.691200 2.626300 
5.999203 17.359221 -11.599314 -5.923625 1.300741 2.935611 4.914354 1.941059 -0.460549 -12.014246 -12.485217 -8.455745 -0.164280 9.828975 27.679028 -0.355253 4.625681 -9.343137 1.145500 -6.796200 -19.113100 -8.683860 -2.817176 -3.043791 31.205626 -5.326364 6.919718 2.800879 -0.191069 4.261171 0.497219 -9.685582 -10.807525 -0.327100 3.675700 -10.166100 5.444133 1.142108 4.762682 1.281691 1.849086 -3.560555 -3.143688 0.564812 -0.160116 2.286372 2.992118 -18.789981 5.395656 2.841175 13.227152 0.096100 1.962900 12.988500 2.872336 -1.313789 -0.709096 -87.624013 3.318269 36.542073 17.307469 -25.492228 -5.164799 -0.177077 -2.230526 -28.536842 32.520043 52.924489 28.401600 -7.125000 0.000000 0.000000 -79.583700 84.748500 -74.354900 -3.077979 1.099082 -0.983036 89.486139 -0.234538 26.473695 -11.609613 21.286180 -2.329994 0.868064 -0.256672 -10.599202 -25.842080 18.132273 -9.028700 7.125000 0.000000 0.000000 0.960800 -9.501000 0.789100 
5.999004 17.358326 -11.597324 -5.860070 1.186982 2.913009 4.903277 1.944467 -0.452485 -12.079364 -12.405566 -8.399624 -0.173153 9.812190 27.641519 -0.276816 4.355379 -9.813533 1.435300 -7.574700 -21.429500 -8.673354 -2.816533 -3.045247 31.100176 -5.238117 6.981223 2.795785 -0.184666 4.262190 0.486508 -9.564772 -10.798703 -0.332800 3.707300 -10.254600 5.327412 1.172823 4.807685 1.274570 1.888789 -3.546362 -3.118059 0.586495 -0.155139 2.360735 2.976182 -18.742063 5.361673 2.793400 13.196606 0.045900 1.946300 12.959900 2.882360 -1.318074 -0.703444 -87.593515 3.301635 36.508071 17.339359 -25.537104 -5.180253 -0.177769 -2.227711 -28.518595 32.469930 52.904736 28.349000 -7.125000 0.000000 0.000000 -79.250900 84.731000 -74.008800 -3.091146 1.096926 -0.985919 89.536586 -0.239227 27.056514 -11.734519 21.586942 -2.363016 0.815346 -0.530775 -11.594035 -21.798201 27.111276 -10.894300 7.125000 0.000000 0.000000 4.617800 -0.454200 4.596000 
6.000198 17.359122 -11.595235 -5.816370 1.128766 2.912205 4.893414 1.944366 -0.446281 -12.124475 -12.396302 -8.366500 -0.179509 9.804509 27.621545 -0.197643 4.091657 -10.280089 1.709700 -8.233300 -23.424900 -8.665791 -2.814282 -3.047423 31.031228 -5.188747 6.998743 2.793550 -0.181673 4.262188 0.487364 -9.542910 -10.750591 -0.339100 3.741900 -10.351800 5.245064 1.183737 4.836844 1.268627 1.902951 -3.537697 -3.092864 0.594001 -0.145855 2.363598 2.972831 -18.741905 5.405884 2.786499 13.220204 0.071400 1.950300 12.973100 2.882076 -1.315242 -0.703161 -87.564089 3.275900 36.441140 17.374716 -25.581847 -5.195798 -0.180012 -2.223059 -28.425145 32.309155 52.868496 28.190400 -7.125000 0.000000 0.000000 -78.530200 84.670100 -73.236700 -3.102353 1.102119 -0.987573 89.573819 -0.168632 27.272617 -11.847401 21.783722 -2.401878 0.790027 -0.598589 -11.658664 -20.508484 29.299249 -10.939400 7.125000 0.000000 0.000000 5.687200 1.597900 5.872300 
6.001392 17.360813 -11.592548 -5.837839 1.128092 2.926094 4.887770 1.943154 -0.442098 -12.086926 -12.391377 -8.369928 -0.175849 9.802860 27.622494 -0.117885 3.789746 -10.609715 1.952000 -8.765500 -25.064400 -8.666538 -2.812148 -3.051115 31.055963 -5.182290 6.985596 2.794441 -0.183355 4.260808 0.493728 -9.578877 -10.685563 -0.338600 3.739300 -10.344200 5.249067 1.181517 4.846779 1.269221 1.900907 -3.531789 -3.074820 0.592242 -0.130368 2.294256 2.978993 -18.758836 5.489390 2.817387 13.247499 0.144900 1.967000 12.987200 2.874218 -1.309453 -0.704150 -87.541131 3.238540 36.515646 17.411382 -25.625257 -5.211196 -0.187180 -2.225161 -28.576420 32.818493 52.707266 28.608400 -7.125000 0.000000 0.000000 -77.746000 84.901700 -72.698100 -3.103265 1.110130 -0.987448 89.522889 -0.045083 27.170400 -11.895753 21.814668 -2.429186 0.808736 -0.506895 -11.031276 -21.991860 26.012301 -10.593900 7.125000 0.000000 0.000000 4.358100 -1.585300 4.248300 
6.001790 17.363400 -11.589165 -5.921052 1.153852 2.975085 4.874634 1.936262 -0.435264 -11.943578 -12.392373 -8.416716 -0.164920 9.799058 27.619704 0.064215 3.100480 -11.293619 2.504400 -9.845900 -28.479100 -8.669758 -2.808277 -3.055236 31.162117 -5.182212 6.935508 2.797887 -0.189349 4.256617 0.498084 -9.620012 -10.650708 -0.332000 3.703100 -10.242900 5.331371 1.168370 4.798233 1.275977 1.881271 -3.527559 -3.074303 0.581707 -0.090247 2.227994 2.976615 -18.774523 5.545021 2.836216 13.266385 0.199200 1.974900 12.994300 2.866835 -1.302803 -0.705090 -87.504692 3.204494 36.718107 17.448461 -25.670346 -5.226554 -0.193413 -2.232852 -29.043038 33.840680 52.436931 29.464700 -7.125000 0.000000 0.000000 -76.740000 85.362900 -72.170800 -3.096829 1.112099 -0.984190 89.451013 0.130648 27.011906 -11.879180 21.683113 -2.431141 0.860721 -0.265702 -10.787846 -25.567148 18.422464 -9.056800 7.125000 0.000000 0.000000 1.177400 -9.220600 0.973800 
6.002685 17.365191 -11.585384 -5.943213 1.202122 3.021416 4.878846 1.932198 -0.440076 -11.904141 -12.420125 -8.459592 -0.160811 9.804583 27.630378 0.050291 3.117841 -11.141846 2.388900 -9.633000 -27.796100 -8.674036 -2.807379 -3.055699 31.204744 -5.205680 6.881378 2.800549 -0.193382 4.254529 0.507933 -9.702016 -10.608907 -0.324000 3.658400 -10.117600 5.360742 1.135257 4.741950 1.278711 1.833191 -3.525179 -3.082865 0.557780 -0.051269 2.201772 2.995624 -18.779114 5.572064 2.871399 13.277331 0.227800 1.990400 12.996800 2.864949 -1.299557 -0.704289 -87.477914 3.181247 36.769355 17.474844 -25.702795 -5.237023 -0.193088 -2.233103 -29.245802 34.068354 52.305181 29.633400 -7.125000 0.000000 0.000000 -75.603800 85.474100 -71.164200 -3.099696 1.111578 -0.984104 89.420290 0.251547 26.998173 -11.863215 21.661779 -2.426018 0.859729 -0.265598 -10.800623 -25.524896 18.409344 -9.033900 7.125000 0.000000 0.000000 1.204200 -9.242000 0.995400 
6.005073 17.366385 -11.580409 -5.872855 1.223507 3.032179 4.877572 1.930282 -0.439941 -11.976213 -12.416408 -8.460449 -0.158396 9.810129 27.642606 0.065708 3.034936 -11.132172 2.265400 -9.398200 -27.049200 -8.668085 -2.807949 -3.055797 31.113776 -5.230095 6.876726 2.797654 -0.191094 4.257330 0.513053 -9.722731 -10.571020 -0.315700 3.611800 -9.987100 5.283656 1.113505 4.724193 1.274200 1.800156 -3.525293 -3.075019 0.542516 -0.048903 2.252306 3.030145 -18.743755 5.537165 2.903204 13.270173 0.196200 2.005500 12.986200 2.868882 -1.302413 -0.701630 -87.458723 3.181803 36.769811 17.484324 -25.717530 -5.241694 -0.188133 -2.231255 -29.313884 33.904171 52.304312 29.482200 -7.125000 0.000000 0.000000 -75.225800 85.404000 -70.723100 -3.097856 1.107463 -0.985363 89.391008 0.270366 27.058786 -11.929727 21.757625 -2.451585 0.857461 -0.264868 -10.754185 -25.478043 18.346484 -8.985800 7.125000 0.000000 0.000000 1.229000 -9.319800 1.014000 
6.007461 17.366982 -11.575633 -5.840585 1.219937 3.029535 4.874860 1.930902 -0.437548 -12.005733 -12.362812 -8.462153 -0.154717 9.809829 27.646198 0.087357 2.926344 -11.138867 2.198200 -9.267300 -26.635000 -8.665488 -2.809475 -3.055537 31.053928 -5.234715 6.893961 2.793753 -0.188566 4.259816 0.509391 -9.672266 -10.552227 -0.301500 3.530700 -9.759800 5.229691 1.107969 4.733760 1.279276 1.790705 -3.527013 -3.047222 0.538698 -0.069111 2.320867 3.060889 -18.697113 5.458672 2.925670 13.265867 0.131100 2.013300 12.979900 2.878401 -1.310007 -0.698843 -87.453441 3.186114 36.792609 17.487961 -25.726188 -5.244286 -0.187789 -2.232253 -29.434667 34.067855 52.259920 29.619000 -7.125000 0.000000 0.000000 -75.013800 85.478400 -70.588900 -3.087946 1.101709 -0.987352 89.360925 0.314052 26.937114 -11.945776 21.779898 -2.458433 0.853099 -0.273444 -10.542639 -25.316259 18.486542 -8.987100 7.125000 0.000000 0.000000 1.351600 -9.189800 1.118700 
